<?xml version="1.0" standalone="no"?>
<!DOCTYPE svg PUBLIC "-//W3C//DTD SVG 20010904//EN"
 "http://www.w3.org/TR/2001/REC-SVG-20010904/DTD/svg10.dtd">
<svg version="1.0" xmlns="http://www.w3.org/2000/svg"
 width="1080.000000pt" height="1075.000000pt" viewBox="0 0 1080.000000 1075.000000"
 preserveAspectRatio="xMidYMid meet">

<g transform="translate(0.000000,1075.000000) scale(0.100000,-0.100000)"
fill="#000000" stroke="none">
<path d="M5155 8854 c-339 -25 -634 -105 -919 -252 -104 -53 -283 -171 -376
-247 -86 -70 -256 -242 -325 -330 -233 -292 -392 -642 -457 -1005 -23 -133
-36 -398 -26 -550 24 -365 149 -734 356 -1050 90 -138 151 -213 275 -339 328
-333 741 -551 1197 -631 253 -44 618 -38 860 15 110 24 313 88 390 123 150 67
191 87 271 132 49 28 110 66 135 85 33 25 53 34 68 30 15 -5 17 -4 7 3 -9 7
-10 12 -2 16 6 4 11 3 11 -3 0 -5 8 -12 18 -14 15 -4 15 -5 -2 -6 -12 -1 -16
-6 -12 -17 3 -9 6 -27 6 -40 0 -15 6 -24 15 -24 8 0 15 5 15 10 0 6 -4 10 -10
10 -5 0 -10 7 -10 16 0 13 5 11 25 -7 18 -18 21 -25 10 -27 -18 -4 -18 -2 0
-45 8 -20 15 -54 15 -76 0 -22 4 -41 10 -43 5 -1 11 -41 12 -89 3 -84 3 -85
28 -82 14 1 17 0 8 -3 -23 -7 -23 -21 0 -28 42 -14 375 -36 450 -31 31 2 99 7
151 10 129 8 293 38 440 80 305 89 381 236 246 480 -61 111 -82 235 -51 308 7
18 36 55 65 83 47 47 51 55 51 98 0 52 -17 92 -65 151 l-32 40 18 35 c30 56
25 100 -17 141 -52 50 -103 131 -109 175 -6 35 -1 46 40 104 103 143 129 236
78 280 -147 125 -227 198 -371 335 -159 152 -159 153 -183 297 -91 557 -372
1045 -802 1389 -323 260 -702 422 -1099 473 -123 16 -324 25 -403 20z m1295
-509 c7 -8 18 -15 25 -15 7 0 15 -7 19 -15 3 -8 12 -15 21 -15 8 0 15 -7 15
-15 0 -8 6 -15 13 -15 7 0 29 -13 47 -30 18 -16 36 -30 39 -30 9 0 189 -177
239 -234 23 -26 42 -54 42 -61 0 -8 9 -17 20 -20 11 -3 20 -12 20 -19 0 -7 9
-21 20 -31 21 -19 27 -55 10 -55 -5 0 -10 6 -10 13 0 6 -18 32 -40 56 -22 25
-40 50 -40 58 0 7 -4 13 -9 13 -6 0 -71 62 -146 138 -76 75 -140 137 -144 137
-3 0 -15 9 -27 20 -41 40 -90 80 -116 98 -16 10 -28 22 -28 27 0 15 16 12 30
-5z m580 -593 c0 -7 -4 -10 -10 -7 -5 3 -10 16 -10 28 0 18 2 19 10 7 5 -8 10
-21 10 -28z m-1493 -36 c201 -56 354 -140 493 -273 181 -172 302 -398 340
-635 18 -112 9 -341 -18 -444 -113 -429 -438 -739 -870 -829 -40 -8 -84 -15
-96 -15 -28 0 -29 3 -85 260 -34 154 -205 898 -231 1005 -5 22 -32 139 -60
260 -27 121 -70 307 -95 414 -25 106 -45 199 -45 206 0 16 103 52 203 71 116
22 349 12 464 -20z m-2027 -2224 c0 -15 -2 -15 -10 -2 -13 20 -13 33 0 25 6
-3 10 -14 10 -23z m40 -34 c0 -6 10 -21 23 -33 27 -28 52 -58 52 -64 0 -5 61
-75 108 -121 20 -21 37 -43 37 -49 0 -6 5 -11 10 -11 6 0 46 -36 89 -80 44
-44 84 -80 90 -80 6 0 11 -7 11 -15 0 -8 7 -15 15 -15 9 0 21 -11 27 -25 6
-14 18 -25 27 -25 17 0 51 -33 51 -50 0 -5 -13 -1 -30 8 -16 9 -30 20 -30 25
0 4 -4 7 -9 7 -6 0 -25 14 -43 30 -18 17 -35 30 -39 30 -10 0 -87 70 -153 139
-92 95 -99 103 -130 146 -16 22 -39 50 -51 62 -11 12 -27 34 -35 50 -8 15 -22
39 -32 52 -22 29 -23 42 -3 35 8 -4 15 -11 15 -16z m3130 -568 c0 -5 -5 -10
-11 -10 -5 0 -7 5 -4 10 3 6 8 10 11 10 2 0 4 -4 4 -10z m-2528 -31 c16 -12
27 -23 25 -26 -8 -7 -67 26 -67 37 0 15 9 12 42 -11z m64 -56 c-7 -7 -26 7
-26 19 0 6 6 6 15 -2 9 -7 13 -15 11 -17z m2597 -410 c-7 -2 -19 -2 -25 0 -7
3 -2 5 12 5 14 0 19 -2 13 -5z"/>
<path d="M5095 3599 c-49 -5 -112 -11 -140 -13 -148 -13 -300 -54 -320 -86 -4
-6 0 -21 8 -33 11 -17 36 -28 93 -42 44 -10 88 -19 99 -19 11 -1 25 -5 32 -9
6 -4 13 -3 15 2 2 6 21 5 48 -1 152 -33 695 -38 895 -8 39 6 93 13 120 16 80
8 154 26 166 41 6 7 23 14 38 14 l26 1 -26 7 c-21 5 -25 10 -18 26 4 11 8 14
8 8 1 -7 8 -13 17 -13 27 0 9 24 -24 32 -18 5 -32 13 -32 19 0 6 -9 8 -20 4
-12 -4 -27 -2 -34 4 -8 6 -33 13 -57 16 -69 6 -137 15 -208 25 -92 14 -577 20
-686 9z"/>
<path d="M4660 3096 c0 -73 4 -127 10 -131 6 -4 10 15 10 49 l0 56 45 0 c54 0
85 25 85 70 0 49 -38 80 -100 80 l-50 0 0 -124z m112 87 c42 -38 6 -103 -57
-103 l-35 0 0 60 0 60 37 0 c20 0 45 -7 55 -17z"/>
<path d="M6146 3095 c-47 -117 -52 -135 -38 -135 4 0 16 24 27 53 20 50 22 52
63 55 l42 3 26 -58 c14 -32 28 -53 31 -47 5 14 -86 244 -97 244 -4 0 -29 -52
-54 -115z m77 25 l15 -40 -38 0 -38 0 15 40 c9 22 19 40 23 40 4 0 14 -18 23
-40z"/>
<path d="M4877 3170 c-40 -12 -57 -29 -57 -56 0 -27 34 -54 70 -54 30 0 50
-17 50 -42 0 -26 -37 -41 -84 -34 -34 6 -39 5 -28 -6 21 -21 101 -17 118 7 33
44 4 85 -69 100 -64 13 -37 69 33 67 22 -1 40 3 40 8 0 6 -4 10 -9 10 -5 0
-15 2 -23 4 -7 2 -26 0 -41 -4z"/>
<path d="M5000 3070 c0 -72 4 -109 10 -105 6 3 10 50 10 105 0 55 -4 102 -10
105 -6 4 -10 -33 -10 -105z"/>
<path d="M5131 3166 c-94 -31 -97 -149 -6 -193 38 -18 95 -9 103 16 4 11 0 12
-14 6 -46 -19 -70 -17 -102 10 -39 33 -43 78 -10 120 19 25 26 27 70 23 53 -6
63 5 20 20 -19 6 -39 6 -61 -2z"/>
<path d="M5335 3173 c-67 -13 -107 -103 -71 -158 75 -115 245 -18 181 104 -11
23 -73 65 -87 60 -1 -1 -12 -4 -23 -6z m80 -48 c51 -50 18 -133 -55 -141 -42
-5 -90 41 -90 86 0 71 94 107 145 55z"/>
<path d="M5720 3173 c-85 -24 -117 -109 -64 -172 48 -57 135 -47 169 19 19 36
19 63 1 98 -18 36 -74 64 -106 55z m69 -40 c12 -10 24 -35 28 -55 5 -32 1 -41
-25 -68 -38 -37 -70 -38 -111 -4 -63 52 -28 144 54 144 18 0 42 -8 54 -17z"/>
<path d="M5934 3166 c-83 -36 -87 -153 -7 -191 42 -20 83 -13 116 21 23 23 40
77 29 89 -3 3 -26 4 -51 4 l-46 -2 40 -6 c33 -5 39 -9 36 -26 -5 -34 -21 -56
-47 -65 -38 -15 -50 -12 -83 16 -64 54 -26 144 61 144 25 0 38 4 33 9 -19 17
-50 20 -81 7z"/>
<path d="M5502 3068 l3 -103 68 -3 c40 -2 67 1 67 7 0 6 -26 11 -57 13 l-58 3
-3 93 c-2 52 -7 92 -13 92 -6 0 -9 -39 -7 -102z"/>
<path d="M3050 2875 l0 -25 2450 0 2450 0 0 25 0 25 -2450 0 -2450 0 0 -25z"/>
<path d="M3235 2758 c-3 -7 -4 -175 -3 -373 l3 -360 240 0 240 0 0 25 0 25
-210 1 -210 2 -5 343 -5 344 -23 3 c-12 2 -24 -3 -27 -10z"/>
<path d="M6095 2757 c-3 -6 -4 -174 -3 -372 l3 -360 160 0 c152 0 163 1 217
27 76 35 148 104 184 175 27 53 29 67 29 163 0 93 -3 112 -27 162 -50 107
-153 186 -270 208 -77 15 -288 13 -293 -3z m364 -76 c65 -34 114 -84 147 -149
24 -48 28 -69 28 -137 0 -101 -23 -157 -97 -228 -79 -77 -145 -94 -349 -88
l-38 1 0 316 0 316 133 -4 c114 -3 138 -7 176 -27z"/>
<path d="M3787 2613 c-10 -10 -8 -372 3 -417 43 -186 310 -241 427 -87 48 62
54 98 51 313 l-3 193 -27 3 -28 3 0 -206 c0 -236 -7 -263 -81 -312 -69 -46
-190 -34 -241 24 -44 51 -48 74 -48 288 l0 205 -23 0 c-13 0 -27 -3 -30 -7z"/>
<path d="M4554 2600 c-74 -29 -148 -110 -169 -185 -45 -154 18 -301 160 -371
48 -23 64 -26 137 -22 63 2 95 9 131 28 57 28 70 42 61 64 -8 22 -18 20 -83
-11 -237 -117 -466 143 -318 359 47 70 112 103 202 103 56 0 79 -5 113 -25
l42 -24 21 20 20 20 -53 29 c-71 39 -187 45 -264 15z"/>
<path d="M4990 2320 l0 -300 25 0 25 0 0 300 0 300 -25 0 -25 0 0 -300z"/>
<path d="M5370 2610 c0 -6 -9 -29 -19 -53 -44 -95 -211 -509 -211 -523 0 -8
10 -14 24 -14 20 0 30 14 71 110 l48 111 101 -3 100 -3 46 -105 c41 -94 49
-105 70 -102 13 1 25 4 27 5 2 3 -62 165 -92 232 -7 17 -30 71 -50 120 -21 50
-50 118 -66 153 -16 34 -29 67 -29 72 0 6 -4 10 -10 10 -5 0 -10 -5 -10 -10z
m50 -212 c19 -51 37 -96 38 -100 2 -4 -31 -8 -73 -8 l-77 0 7 33 c4 17 10 37
14 42 4 6 15 36 26 68 10 31 21 57 24 57 3 0 22 -42 41 -92z"/>
<path d="M6790 2613 c0 -5 0 -100 -1 -213 -1 -113 -1 -244 0 -292 1 -87 1 -88
26 -88 l25 0 0 300 0 300 -25 0 c-14 0 -25 -3 -25 -7z"/>
<path d="M7167 2603 c-3 -10 -40 -101 -82 -203 -162 -392 -159 -380 -117 -380
14 0 26 15 42 53 12 28 34 78 48 110 l26 58 100 -3 99 -3 47 -105 c26 -58 53
-105 59 -104 27 2 31 5 31 17 0 26 -231 577 -241 577 -4 0 -9 -8 -12 -17z m53
-205 c19 -51 37 -96 38 -100 2 -4 -30 -8 -72 -8 -42 0 -76 3 -76 8 0 14 65
192 70 192 3 0 21 -41 40 -92z"/>
<path d="M7470 2595 l0 -25 176 0 c200 0 191 6 126 -83 -21 -28 -83 -115 -138
-192 -54 -77 -102 -144 -107 -150 -48 -63 -77 -106 -77 -114 0 -8 79 -11 245
-11 l245 0 0 28 0 27 -190 0 c-120 0 -190 4 -190 10 1 6 30 51 65 100 173 241
295 417 295 426 0 5 -92 9 -225 9 l-225 0 0 -25z"/>
</g>
</svg>
